inDegrees=no
num_controls=7
num_derivatives=13
num_iterations=109
num_multipliers=7
num_parameters=0
num_slacks=7
num_states=26
objective=0.431118
objective_accelerations=0.050212
objective_balance=0.006760
objective_effort=0.031102
objective_height=0.341883
objective_ligament=0.001161
solver_duration=1396.081607
status=Solve_Succeeded
success=true
DataType=double
version=3
OpenSimVersion=4.5
endheader
time	/jointset/ground_pelvis/pelvis_tilt/value	/jointset/ground_pelvis/pelvis_tx/value	/jointset/ground_pelvis/pelvis_ty/value	/jointset/hip_l/hip_flexion_l/value	/jointset/hip_l/hip_adduction_l/value	/jointset/hip_l/hip_rotation_l/value	/jointset/back/lumbar_extension/value	/jointset/patellofemoral_l/patellar_flexion_l/value	/jointset/knee_l/knee_flexion_l/value	/jointset/knee_l/knee_adduction_l/value	/jointset/knee_l/knee_rotation_l/value	/jointset/ankle_l/ankle_angle_l/value	/jointset/subtalar_l/subtalar_angle_l/value	/jointset/ground_pelvis/pelvis_tilt/speed	/jointset/ground_pelvis/pelvis_tx/speed	/jointset/ground_pelvis/pelvis_ty/speed	/jointset/hip_l/hip_flexion_l/speed	/jointset/hip_l/hip_adduction_l/speed	/jointset/hip_l/hip_rotation_l/speed	/jointset/back/lumbar_extension/speed	/jointset/patellofemoral_l/patellar_flexion_l/speed	/jointset/knee_l/knee_flexion_l/speed	/jointset/knee_l/knee_adduction_l/speed	/jointset/knee_l/knee_rotation_l/speed	/jointset/ankle_l/ankle_angle_l/speed	/jointset/subtalar_l/subtalar_angle_l/speed	/forceset/tau_hip_flexion_l	/forceset/tau_hip_adduction_l	/forceset/tau_hip_rotation_l	/forceset/tau_knee_flexion_l	/forceset/tau_ankle_angle_l	/forceset/tau_subtalar_angle_l	/forceset/tau_lumbar_extension	lambda_cid13_p0	lambda_cid13_p1	lambda_cid13_p2	lambda_cid13_p3	lambda_cid13_p4	lambda_cid13_p5	lambda_cid14_p0	/jointset/ground_pelvis/pelvis_tilt/accel	/jointset/ground_pelvis/pelvis_tx/accel	/jointset/ground_pelvis/pelvis_ty/accel	/jointset/hip_l/hip_flexion_l/accel	/jointset/hip_l/hip_adduction_l/accel	/jointset/hip_l/hip_rotation_l/accel	/jointset/back/lumbar_extension/accel	/jointset/patellofemoral_l/patellar_flexion_l/accel	/jointset/knee_l/knee_flexion_l/accel	/jointset/knee_l/knee_adduction_l/accel	/jointset/knee_l/knee_rotation_l/accel	/jointset/ankle_l/ankle_angle_l/accel	/jointset/subtalar_l/subtalar_angle_l/accel	gamma_cid13_p0	gamma_cid13_p1	gamma_cid13_p2	gamma_cid13_p3	gamma_cid13_p4	gamma_cid13_p5	gamma_cid14_p0
1.5	-0.3338271282621272	-0.02956764434590249	0.7651401956508187	1.169925831499197	-0.3048892887731183	0.01177553299473881	-0.3378877129858794	0.8215809907550213	0.8215809907559619	-0.1729643182728742	0.1676666060673597	0.1674293666212615	-0.01860637355947351	0.4188409344354489	0.1539518434957012	0.5052934245213765	-2.088380751215489	-0.01413738509095996	-0.7027538412204974	0.5745849821474401	-2.100878939044555	-2.10087893904515	0.00717524706434145	-0.03945174586185592	-0.5556074926958033	-0.1079884861754398	-0.1911014455066183	0.02284218618899127	-0.02604111077592674	-0.2561913985910479	0.09726175390012302	0.03620141594673475	0.1904014132638021	-6.97553118517355	-17.10214459194225	5.295366195600844	-2.039717899148053	-606.3475602164253	-56.78666467500044	-20.2152985765337	0.5008192148749452	0.5363282172494597	-0.4220843865372255	-1.298498775261521	0.6730032111786188	-0.3640727208451051	1.58081166647715	-1.330791595793081	-1.330791595793091	0.03509669085719262	-0.07493017796961719	-0.559981601535291	0.699787657503283	4.116165099120177e-07	4.097042562733015e-07	-2.565668296419114e-06	-2.836556060095032e-07	4.889939921210424e-07	2.668055840320764e-07	3.991117634502692e-07
1.51	-0.3296138420580764	-0.02800146436235542	0.770171004387444	1.148979215590855	-0.3049980629239558	0.004732849000283391	-0.3320641014875561	0.8005079220742207	0.8005079220742356	-0.1728947318694146	0.1672680921477264	0.1618456692644131	-0.01965266764918027	0.4237571522343774	0.1592634581039128	0.5007633957961224	-2.10064457342326	-0.007594122554101528	-0.7056950814291596	0.5900508308543898	-2.113433765032037	-2.113433765031893	0.006741256643594673	-0.04024917819671418	-0.5610388308852885	-0.101249825681429	-0.1849860415140041	0.02239925718666342	-0.02591075276071003	-0.2532436328658204	0.09877130404839222	0.03600136785238413	0.1852545179671945	-6.268518200677928	-17.237038141747	5.428789439040999	-2.217633053232898	-602.0449223037265	-56.99571270375952	-21.50057077158157	0.4781899288226676	0.5254151254293603	-0.4840919513435691	-1.145591827894612	0.6488425533577071	-0.2455738536200292	1.516498473378171	-1.17276083158395	-1.172760831473171	-0.08278535796347272	-0.08133077696514743	-0.5207494144496828	0.6642133713495115	4.446076289862956e-07	5.118034382159408e-07	-2.685282348453661e-06	-2.901222170479364e-07	5.266684792378489e-07	3.645055478401974e-07	4.24592781456415e-07
1.52	-0.325353160302752	-0.02638280082416175	0.775153386869652	1.127918907883563	-0.3050406334937407	-0.002336532232807111	-0.3260884261020483	0.7793183185872742	0.7793183185863701	-0.1728295130600469	0.1668617677015991	0.1562104506283112	-0.02063091350874702	0.4283200446901391	0.164448554425023	0.4956081736379042	-2.111119111005421	-0.0008966688805130737	-0.7080932889475521	0.6049977595843103	-2.124185900273849	-2.124185900272967	0.006301728245934587	-0.04101385116042126	-0.5659117485465562	-0.094378840147436	-0.1788706375213882	0.02195632818433767	-0.02578039474551219	-0.2502958671405903	0.1002808541966621	0.0358013197580361	0.1801076226705879	-5.565731002871094	-17.3735243889458	5.565133025545042	-2.416231285507647	-597.8339438619008	-57.29324094536672	-22.78037938495482	0.4301541462415864	0.5110245598291882	-0.5471230731300679	-0.9406418501394669	0.7038414385246263	-0.2554661827911491	1.477027671071319	-0.9702534466592341	-0.9702534466592209	0.03398909547453052	-0.06837830373938045	-0.4482974958918247	0.726252665499729	4.89954122348531e-07	5.896236321148057e-07	-2.875177293893163e-06	-3.092381363728169e-07	5.772973276981618e-07	4.637280606741747e-07	4.581755129641822e-07
1.53	-0.3210485348698831	-0.024712935101348	0.7800811713525788	1.106762611518304	-0.3050157592888159	-0.009426859373645518	-0.3199659794864707	0.7580301591994366	0.7580301591992885	-0.1727693013701201	0.1664478323814484	0.1505293146161041	-0.02154011911211092	0.4325454521990124	0.1695015968084252	0.4898498333528074	-2.119836165311623	0.005890147207366204	-0.7098901230451815	0.6194039086718355	-2.133124266362219	-2.133124266361904	0.005751645971018213	-0.04176346827117754	-0.5702062430139405	-0.08744436702670434	-0.1728032850463215	0.02127614298177259	-0.02558347163078388	-0.247416659834644	0.1018218082902025	0.03550322069826915	0.174995752854689	-4.864996743596403	-17.46334790274163	5.689786271346023	-2.596070354116203	-593.7758994161563	-57.55396095375526	-24.05274896926649	0.4098467330599551	0.4989232336286795	-0.6048877127715001	-0.791569809343757	0.6693205728263106	-0.1290173230572285	1.409260298688261	-0.8074761408829582	-0.8074761409679412	-0.09789706962875033	-0.07615178353691202	-0.4036536232161097	0.6800091149336566	5.484282008917211e-07	6.416474012171609e-07	-3.139745688575428e-06	-3.417939457520476e-07	6.416901850859498e-07	5.645682818481244e-07	5.003663150674217e-07
1.54	-0.3167034328259552	-0.02299324312349362	0.7849484327913402	1.085528278092286	-0.3049223731472304	-0.01653259991542228	-0.3137021010257988	0.7366622465605244	0.7366622465611259	-0.1727142685390738	0.1660268212164304	0.1448085080190123	-0.02237938708835274	0.4364153669018748	0.1744138054331499	0.4835035648048263	-2.126726523157149	0.01280571845151517	-0.7111759691351461	0.6332841286031661	-2.140136550488871	-2.140136550489123	0.00526595646994159	-0.04242902013366043	-0.5738458655235003	-0.08039131472302101	-0.166735932571255	0.02059595777920782	-0.02538654851606412	-0.2445374525286968	0.103362762383743	0.03520512163850278	0.1698838830387899	-4.166681055251881	-17.55604904526436	5.818671275585624	-2.808420447992874	-589.7884894471381	-57.91541341368309	-25.31633301219638	0.3590555850394198	0.48285780809368	-0.6647087257069373	-0.5753025580040124	0.729592469778565	-0.1532685812581601	1.371841839832419	-0.5850370543155737	-0.5850370543156084	0.04686765024248113	-0.05156525408470554	-0.3173231043269255	0.7499685020900655	5.971189323026928e-07	7.384786383333225e-07	-3.343732528142326e-06	-3.611192409423379e-07	6.9919818636497e-07	6.808521984338471e-07	5.372089582315806e-07
